<svg width="105" height="105" viewBox="0 0 105 105" fill="none" xmlns="http://www.w3.org/2000/svg">
<path d="M69.9243 52.378C69.9243 53.8513 70.5096 55.2642 71.5514 56.3059C72.5931 57.3477 74.0061 57.933 75.4793 57.933C76.9526 57.933 78.3655 57.3477 79.4073 56.3059C80.4491 55.2642 81.0343 53.8513 81.0343 52.378C81.0343 50.9047 80.4491 49.4918 79.4073 48.45C78.3655 47.4083 76.9526 46.823 75.4793 46.823C74.0061 46.823 72.5931 47.4083 71.5514 48.45C70.5096 49.4918 69.9243 50.9047 69.9243 52.378ZM23.6328 52.378C23.6328 53.8513 24.2181 55.2642 25.2598 56.3059C26.3016 57.3477 27.7145 57.933 29.1878 57.933C30.6611 57.933 32.074 57.3477 33.1158 56.3059C34.1575 55.2642 34.7428 53.8513 34.7428 52.378C34.7428 50.9047 34.1575 49.4918 33.1158 48.45C32.074 47.4083 30.6611 46.823 29.1878 46.823C27.7145 46.823 26.3016 47.4083 25.2598 48.45C24.2181 49.4918 23.6328 50.9047 23.6328 52.378V52.378Z" fill="white"/>
<path d="M100.151 32.2855C97.5352 26.0709 93.7856 20.4928 89.006 15.7016C84.2599 10.9382 78.6255 7.1518 72.4221 4.55691C66.057 1.88357 59.2984 0.529541 52.3315 0.529541H52.1001C45.0869 0.56426 38.2936 1.95301 31.9054 4.68421C25.7551 7.30571 20.1736 11.0988 15.4719 15.852C10.7386 20.6316 7.02371 26.1866 4.45453 32.3781C1.79277 38.7895 0.450313 45.6059 0.485032 52.6191C0.524301 60.6561 2.42571 68.5747 6.04002 75.7533V93.3441C6.04002 94.756 6.60089 96.11 7.59924 97.1084C8.5976 98.1067 9.95166 98.6676 11.3635 98.6676H28.9659C36.1445 102.282 44.0631 104.183 52.1001 104.223H52.3431C59.2753 104.223 65.9991 102.88 72.3295 100.253C78.5016 97.6891 84.1149 93.9469 88.8556 89.2357C93.6352 84.5024 97.3964 78.9705 100.023 72.8022C102.755 66.414 104.143 59.6207 104.178 52.6075C104.213 45.5596 102.847 38.7201 100.151 32.2855V32.2855ZM82.6641 82.9748C74.5515 91.0064 63.7887 95.4272 52.3315 95.4272H52.1348C45.1564 95.3925 38.2242 93.6565 32.1022 90.393L31.13 89.8722H14.8354V73.5776L14.3146 72.6055C11.0511 66.4834 9.31514 59.5513 9.28042 52.5728C9.23413 41.0346 13.6434 30.2024 21.7328 22.0435C29.8107 13.8846 40.6082 9.37122 52.1464 9.32493H52.3431C58.1296 9.32493 63.7424 10.4475 69.0312 12.6695C74.1927 14.8336 78.8219 17.9467 82.8029 21.9278C86.7724 25.8973 89.8971 30.538 92.0613 35.6995C94.3064 41.0462 95.429 46.7169 95.4058 52.5728C95.3364 64.0994 90.8114 74.8969 82.6641 82.9748V82.9748Z" fill="white"/>
<path d="M46.7773 52.378C46.7773 53.8513 47.3626 55.2642 48.4044 56.3059C49.4461 57.3477 50.8591 57.933 52.3323 57.933C53.8056 57.933 55.2185 57.3477 56.2603 56.3059C57.3021 55.2642 57.8873 53.8513 57.8873 52.378C57.8873 50.9047 57.3021 49.4918 56.2603 48.45C55.2185 47.4083 53.8056 46.823 52.3323 46.823C50.8591 46.823 49.4461 47.4083 48.4044 48.45C47.3626 49.4918 46.7773 50.9047 46.7773 52.378V52.378Z" fill="white"/>
</svg>
